<svg width="207" height="62" viewBox="0 0 207 62" fill="none" xmlns="http://www.w3.org/2000/svg">
<path d="M20.7739 35.7191C16.9917 37.1444 15.239 38.1466 15.239 38.1466C14.8144 38.3633 14.2779 38.8775 14.0487 39.2905L11.1566 44.4747C10.9269 44.8864 11.1129 45.1053 11.5695 44.9619C11.5695 44.9619 12.7304 44.5942 13.8569 44.2693C16.5934 43.476 21.6511 42.301 21.6511 42.301C22.1181 42.1929 22.688 41.7673 22.9177 41.3552L26.9007 34.2154C27.1298 33.8024 26.9457 33.5864 26.4899 33.7335C26.4899 33.7335 23.6544 34.6323 20.7739 35.7191Z" fill="black"/>
<path d="M46.4644 38.7919C46.9424 38.7531 47.1454 38.3846 46.9157 37.9733L43.1022 31.1371C42.8721 30.7246 42.2959 30.4441 41.8214 30.5144L34.181 31.7901C33.7106 31.8821 33.5143 32.2937 33.7436 32.7054L37.1833 38.873C37.4135 39.2856 37.9914 39.5853 38.4695 39.5425L46.4644 38.7919Z" fill="black"/>
<path d="M41.2776 27.866L37.4494 21.0019C37.2197 20.5893 36.6618 20.3843 36.2114 20.5444C30.9881 22.0399 25.8211 24.3443 23.3661 25.9479C22.0072 26.8359 20.8254 27.7975 20.8254 27.7975C20.4571 28.0981 19.9673 28.6802 19.7372 29.0928L16.5218 34.8571C16.2926 35.2678 16.4593 35.4436 16.8946 35.2448C16.8946 35.2448 17.7299 34.8645 18.6651 34.4776C21.8396 33.1613 25.3128 32.0061 28.9902 31.0471C29.0602 31.0296 29.1311 31.0113 29.2007 30.9934C33.2688 29.9581 40.8347 28.7518 40.8347 28.7518C41.3079 28.6768 41.5077 28.2786 41.2776 27.866Z" fill="black"/>
<path d="M23.1517 23.8816C23.1517 23.8816 26.7779 21.7756 29.2364 20.7681C31.3985 19.8816 35.2414 18.7843 35.2414 18.7843C35.7021 18.6526 35.8903 18.2082 35.6615 17.796L32.1009 11.4143C31.3655 10.2468 30.2301 10.293 29.5263 11.5543L29.5174 11.5608L22.8194 23.5685C22.5897 23.9802 22.7395 24.1215 23.1517 23.8816Z" fill="black"/>
<path d="M52.8749 48.657L48.7666 41.2927C48.5369 40.881 48.0794 40.5605 47.7516 40.5788L47.4478 40.6001C32.234 41.6285 21.1227 44.1322 14.4804 46.0499C12.5106 46.6186 10.196 47.398 10.196 47.398C9.74245 47.5502 9.42001 47.6356 8.95264 48.4233C8.95264 48.4233 8.91785 48.4869 8.83089 48.6448L8.83312 48.6509C8.25692 49.8786 8.91607 50.8525 10.3717 50.8525L10.4444 50.8607H51.3353C52.7919 50.8607 53.4501 49.8839 52.8749 48.657Z" fill="black"/>
<path d="M61.7476 30.5022H67.2626L65.9039 25.6617C65.2646 23.4109 64.7048 20.7519 64.505 19.1153C64.2652 20.7519 63.7062 23.3781 63.1066 25.6617L61.7476 30.5022ZM67.9417 33.0254H61.068L59.5097 38.6181C59.3899 38.9938 59.2706 39.1634 57.9906 39.1634C57.5519 39.1634 56.7124 39.1291 55.9524 39.0623L63.0669 15.604C63.1465 15.2635 63.5865 15.1264 64.3053 15.1264C64.8642 15.1264 65.4236 15.1611 65.8239 15.2287L72.9773 38.5829C73.0564 38.9595 72.8566 39.1634 71.5789 39.1634C71.099 39.1634 70.4597 39.1634 69.6604 39.0953L67.9417 33.0254Z" fill="black"/>
<path d="M74.6152 22.8664C76.1745 22.286 78.8123 21.7065 80.9296 21.7065C85.1247 21.7065 86.5633 22.9683 86.5633 26.274V38.5493C86.5633 39.0955 86.4843 39.0955 83.2077 39.0955V27.0926C83.2077 24.9459 82.8073 24.1278 80.8098 24.1278C79.9699 24.1278 78.7313 24.3316 77.8521 24.7416V38.5493C77.8521 39.0955 77.7721 39.0955 74.6152 39.0955V22.8664Z" fill="black"/>
<path d="M89.4803 15.2971C89.4803 14.0343 90.0397 14.0343 92.7172 14.0343V23.035C93.9566 22.1155 95.6745 21.7074 97.1936 21.7074C100.63 21.7074 101.35 23.3431 101.35 26.2068V38.5498C101.35 39.095 101.19 39.095 97.9923 39.095V26.9915C97.9923 25.4916 97.6724 24.264 95.7147 24.264C94.8359 24.264 93.6769 24.5021 92.7172 25.2192V38.5498C92.7172 39.095 92.6775 39.095 89.4803 39.095V15.2971Z" fill="black"/>
<path d="M109.98 30.742C108.383 30.742 107.023 31.2191 107.023 34.1857C107.023 36.6751 108.062 37.1179 109.622 37.1179C110.5 37.1179 111.379 36.8447 111.739 36.5389C111.859 35.4142 111.859 32.89 111.859 31.0496C111.339 30.8438 110.54 30.742 109.98 30.742ZM104.105 22.6274C104.786 22.2521 107.143 21.7065 110.181 21.7065C113.616 21.7065 115.135 22.7979 115.135 25.8668V27.6735C115.135 31.5943 115.095 35.6857 114.896 38.2779C113.817 38.8222 111.938 39.437 109.341 39.437C106.424 39.4698 103.627 38.9256 103.627 34.2529C103.627 29.5148 106.263 28.6616 108.942 28.6616C109.82 28.6616 111.06 28.7644 111.859 29.1054V26.4121C111.859 24.8102 110.98 24.4007 109.381 24.4007C107.383 24.4007 105.265 24.7417 104.105 25.1511C103.747 24.6054 103.667 23.9917 103.667 23.5822C103.667 23.2074 103.787 22.8312 104.105 22.6274Z" fill="black"/>
<path d="M118.013 22.8664C119.572 22.286 122.209 21.7065 124.327 21.7065C128.522 21.7065 129.96 22.9683 129.96 26.274V38.5493C129.96 39.0955 129.88 39.0955 126.604 39.0955V27.0926C126.604 24.9459 126.205 24.1278 124.206 24.1278C123.366 24.1278 122.129 24.3316 121.25 24.7416V38.5493C121.25 39.0955 121.17 39.0955 118.013 39.0955V22.8664Z" fill="black"/>
<path d="M160.092 38.2089C158.572 38.9255 156.295 39.4365 154.139 39.4365C149.381 39.4365 148.143 37.5964 148.143 33.7767V22.6275C148.143 22.0479 148.143 22.0479 151.5 22.0479V34.0157C151.5 36.2309 152.019 37.0156 154.178 37.0156C154.897 37.0156 156.016 36.8794 156.855 36.4022V22.6275C156.855 22.0479 156.896 22.0479 160.092 22.0479V38.2089Z" fill="black"/>
<path d="M166.206 29.9222C167.725 29.9574 170.202 29.8898 171.6 29.5488C171.761 28.9355 171.801 28.1512 171.801 27.5023C171.761 25.048 171.242 24.1276 169.523 24.1276C167.884 24.1276 166.445 25.3208 166.206 29.9222ZM174.957 27.1956C174.957 28.6965 174.837 30.4012 174.519 31.6287C171.761 32.072 168.085 32.1739 166.165 32.1739C166.327 35.7882 167.444 36.7415 169.883 36.7415C171.482 36.7415 173.078 36.3343 174.439 35.6853C174.638 36.1977 174.718 37.0158 174.718 37.5606C174.718 38.6177 172.2 39.4366 169.203 39.4366C165.487 39.4366 162.81 38.1062 162.81 31.4587C162.81 22.9328 166.366 21.7067 169.883 21.7067C173.238 21.7067 174.957 23.5137 174.957 27.1956Z" fill="black"/>
<path d="M177.394 23.241C178.953 22.32 180.872 21.7062 182.83 21.7062C184.867 21.7062 185.627 22.2182 185.627 23.1381C185.627 23.5138 185.548 24.1948 185.268 24.7757C184.668 24.5028 184.028 24.3661 183.35 24.3661C182.47 24.3661 181.472 24.6052 180.711 25.1509L180.673 38.55C180.673 39.0952 180.632 39.0952 177.394 39.0952V23.241Z" fill="black"/>
<path d="M193.22 30.742C191.622 30.742 190.262 31.2191 190.262 34.1857C190.262 36.6751 191.301 37.1179 192.86 37.1179C193.739 37.1179 194.618 36.8447 194.978 36.5389C195.097 35.4142 195.097 32.89 195.097 31.0496C194.578 30.8438 193.778 30.742 193.22 30.742ZM187.345 22.6274C188.025 22.2521 190.383 21.7065 193.419 21.7065C196.856 21.7065 198.374 22.7979 198.374 25.8668V27.6735C198.374 31.5943 198.334 35.6857 198.135 38.2779C197.056 38.8222 195.178 39.437 192.58 39.437C189.663 39.4698 186.865 38.9256 186.865 34.2529C186.865 29.5148 189.503 28.6616 192.18 28.6616C193.059 28.6616 194.3 28.7644 195.097 29.1054V26.4121C195.097 24.8102 194.219 24.4007 192.619 24.4007C190.623 24.4007 188.504 24.7417 187.345 25.1511C186.987 24.6054 186.906 23.9917 186.906 23.5822C186.906 23.2074 187.025 22.8312 187.345 22.6274Z" fill="black"/>
<path d="M139.218 36.6223C138.955 36.6223 138.709 36.5932 138.477 36.5418C136.887 36.1906 135.967 34.6503 135.739 31.9399C135.698 31.4864 135.679 31.0005 135.679 30.4816C135.679 30.1561 135.691 29.8457 135.707 29.5464C135.802 27.8741 136.156 26.6123 136.771 25.7993C137.478 24.8626 138.499 24.4077 139.894 24.4077C140.627 24.4077 141.36 24.4698 142.079 24.5934V35.7343C141.983 35.808 141.885 35.877 141.784 35.9424C141.072 36.3995 140.229 36.6223 139.218 36.6223ZM135.578 44.8958C134.967 44.9134 134.415 44.9084 133.973 44.8648C133.792 45.4721 133.912 46.0826 134.046 46.4773C134.167 46.8387 134.41 47.1721 134.796 47.2968C134.975 47.3416 135.242 47.3769 135.578 47.3945C135.745 47.4042 135.431 47.3931 135.633 47.3945C138.734 47.3505 140.697 46.5398 142.556 44.9694C143.158 44.4617 143.653 43.8883 144.066 43.2638C144.967 41.9065 145.431 40.2866 145.431 38.4113V22.5469L145.233 22.4922C143.586 22.0457 141.789 21.82 139.894 21.82C137.328 21.82 135.396 22.5312 134.161 23.9333C132.986 25.2656 132.376 27.3729 132.334 30.188C132.334 30.2857 132.329 30.3798 132.329 30.4816C132.329 31.6546 132.429 32.7024 132.621 33.6387C133.071 35.8205 134.037 37.3575 135.52 38.2423C136.52 38.8395 137.751 39.1424 139.218 39.1424C140.194 39.1424 141.155 38.9692 142.079 38.625V38.7422C142.079 40.4663 141.515 41.87 140.417 42.9289C140.329 43.016 140.242 43.1036 140.146 43.1869C139.127 44.0476 138.343 44.6067 136.701 44.7887C136.035 44.8638 135.825 44.8884 135.578 44.8958Z" fill="black"/>
</svg>
