<svg width="165" height="33" viewBox="0 0 165 33" fill="none" xmlns="http://www.w3.org/2000/svg">
<path d="M2.48536 30.7576V1.6359H8.64139V30.7576H2.48536ZM0 6.34324V1.6359H8.64139V6.34324H0Z" fill="white"/>
<path d="M20.5875 31.4358C18.1659 31.4358 16.3051 30.6247 15.005 29.0023C13.705 27.3534 13.055 24.8801 13.055 21.5823V8.89638H19.1728V21.9014C19.1728 23.0716 19.4914 24.0025 20.1287 24.6939C20.766 25.3854 21.6199 25.7311 22.6905 25.7311C23.7866 25.7311 24.6788 25.3721 25.3671 24.654C26.0553 23.936 26.3994 22.9652 26.3994 21.7419V8.89638H32.5172V30.7576H27.6612V21.5424H28.0818C28.0818 23.7498 27.8014 25.5982 27.2406 27.0875C26.7053 28.5502 25.9024 29.6406 24.8317 30.3587C23.7611 31.0768 22.4356 31.4358 20.8552 31.4358H20.5875Z" fill="white"/>
<path d="M38.3877 30.7576V8.89638H44.5055V30.7576H38.3877ZM35.5964 13.6037V8.89638H44.5055V13.6037H35.5964ZM40.7583 6.74217C39.6112 6.74217 38.7573 6.43633 38.1965 5.82464C37.6612 5.18636 37.3935 4.3885 37.3935 3.43107C37.3935 2.44705 37.6612 1.64919 38.1965 1.0375C38.7573 0.39922 39.6112 0.0800781 40.7583 0.0800781C41.9054 0.0800781 42.7466 0.39922 43.2819 1.0375C43.8427 1.64919 44.1231 2.44705 44.1231 3.43107C44.1231 4.3885 43.8427 5.18636 43.2819 5.82464C42.7466 6.43633 41.9054 6.74217 40.7583 6.74217Z" fill="white"/>
<path d="M48.0226 30.7576V26.2896L57.8493 14.0027V14.6409L56.9317 13.4442L57.6199 13.8032H48.0609V8.89638H64.5407V13.3644L54.714 25.6514V25.053L55.6316 26.2497L54.9434 25.8508H64.8466V30.7576H48.0226Z" fill="white"/>
<path d="M67.8272 30.7576V8.89638H72.6832V18.2712H72.3391C72.3391 16.0372 72.6067 14.1755 73.142 12.6862C73.7028 11.1969 74.544 10.0799 75.6656 9.33521C76.7872 8.59054 78.151 8.21821 79.7569 8.21821H80.0246C82.4717 8.21821 84.3325 9.05596 85.607 10.7315C86.9071 12.3804 87.5571 14.8936 87.5571 18.2712V30.7576H81.4393V17.9122C81.4393 16.742 81.1079 15.7845 80.4452 15.0399C79.7824 14.2952 78.8902 13.9229 77.7686 13.9229C76.6215 13.9229 75.6911 14.3085 74.9774 15.0798C74.2891 15.8244 73.945 16.8085 73.945 18.0318V30.7576H67.8272Z" fill="white"/>
<path d="M100.257 32.0402C98.7783 32.0402 97.4273 31.7609 96.2038 31.2024C95.0057 30.6439 93.9606 29.8727 93.0684 28.8887C92.1762 27.878 91.488 26.6946 91.0036 25.3382C90.5448 23.9818 90.3154 22.5191 90.3154 20.95V20.0325C90.3154 18.4633 90.532 17.0006 90.9654 15.6443C91.4242 14.2879 92.0742 13.1044 92.9154 12.0938C93.7821 11.0566 94.8145 10.2587 96.0126 9.70023C97.2106 9.11514 98.5489 8.82259 100.027 8.82259C101.71 8.82259 103.163 9.20822 104.386 9.97948C105.61 10.7241 106.566 11.8411 107.254 13.3305C107.942 14.7932 108.325 16.6017 108.401 18.7559L106.795 17.2001V2.20039H112.951V31.3221H108.095V22.2665H108.936C108.86 24.3409 108.439 26.1095 107.675 27.5722C106.935 29.0349 105.929 30.1519 104.654 30.9232C103.379 31.6679 101.914 32.0402 100.257 32.0402ZM101.786 26.6946C102.729 26.6946 103.583 26.4818 104.348 26.0563C105.138 25.6042 105.763 24.9526 106.222 24.1015C106.706 23.2505 106.948 22.2266 106.948 21.0298V19.5537C106.948 18.3836 106.706 17.3995 106.222 16.6017C105.737 15.8038 105.1 15.1921 104.31 14.7666C103.52 14.3411 102.666 14.1283 101.748 14.1283C100.728 14.1283 99.8107 14.4076 98.995 14.9661C98.2048 15.498 97.5803 16.2426 97.1214 17.2001C96.6626 18.1309 96.4332 19.2213 96.4332 20.4713C96.4332 21.7479 96.6626 22.8516 97.1214 23.7824C97.5803 24.7132 98.2175 25.4313 99.0332 25.9366C99.849 26.4419 100.767 26.6946 101.786 26.6946Z" fill="white"/>
<path d="M127.333 32.0801C125.548 32.0801 123.968 31.7609 122.592 31.1227C121.241 30.4844 120.106 29.6333 119.189 28.5695C118.296 27.4791 117.608 26.269 117.124 24.9393C116.665 23.5829 116.436 22.2 116.436 20.7904V19.9926C116.436 18.5298 116.665 17.1336 117.124 15.8038C117.608 14.4475 118.296 13.2374 119.189 12.1736C120.081 11.1098 121.19 10.272 122.515 9.66034C123.866 9.02205 125.396 8.70291 127.103 8.70291C129.347 8.70291 131.233 9.23481 132.762 10.2986C134.317 11.3358 135.503 12.7055 136.318 14.4076C137.134 16.0831 137.542 17.9181 137.542 19.9128V22.067H118.997V18.4367H133.833L131.845 20.1122C131.845 18.8091 131.666 17.6921 131.309 16.7613C130.953 15.8304 130.417 15.1256 129.703 14.6469C129.015 14.1416 128.149 13.889 127.103 13.889C126.033 13.889 125.128 14.1416 124.389 14.6469C123.649 15.1522 123.089 15.8969 122.706 16.8809C122.324 17.8384 122.133 19.0218 122.133 20.4314C122.133 21.7346 122.311 22.8781 122.668 23.8622C123.025 24.8196 123.586 25.5643 124.35 26.0962C125.115 26.6281 126.109 26.894 127.333 26.894C128.454 26.894 129.372 26.668 130.086 26.2158C130.8 25.7637 131.284 25.2052 131.539 24.5403H137.16C136.854 26.0031 136.255 27.3062 135.362 28.4498C134.47 29.5934 133.349 30.4844 131.998 31.1227C130.647 31.7609 129.092 32.0801 127.333 32.0801Z" fill="white"/>
<path d="M146.531 13.5703L150.247 26.6356L150.914 26.6427L154.399 15.1663L159.999 16.3021L155.07 31.8792L146.087 31.784L140.347 12.3158L146.531 13.5703Z" fill="white"/>
<path d="M136.523 3.53025L164.726 9.2512L165 14.9349L136.797 9.21391L136.523 3.53025Z" fill="white"/>
<path d="M136.472 3.52284L164.674 9.24379L164.949 14.9275L136.746 9.2065L136.472 3.52284Z" fill="#F96C36"/>
</svg>
